{
  "asset": {
    "version": "2.0",
    "generator": "THREE.GLTFExporter"
  },
  "scenes": [
    {
      "name": "Scene",
      "nodes": [
        23
      ]
    }
  ],
  "scene": 0,
  "nodes": [
    {
      "matrix": [
        4.5,
        0,
        0,
        0,
        0,
        1.4,
        0,
        0,
        0,
        0,
        0.04,
        0,
        -0.02296257393210277,
        0.6914509748235325,
        -3.925274556443084,
        1
      ],
      "name": "Box",
      "extras": {
        "name": "Box"
      },
      "mesh": 0
    },
    {
      "matrix": [
        4.5,
        0,
        0,
        0,
        0,
        1.4,
        0,
        0,
        0,
        0,
        0.04,
        0,
        -0.01637727077879192,
        0.6914509748235325,
        1.7875770495333434,
        1
      ],
      "name": "Box_1",
      "extras": {
        "name": "Box"
      },
      "mesh": 0
    },
    {
      "matrix": [
        0.06,
        0,
        0,
        0,
        0,
        1.4,
        0,
        0,
        0,
        0,
        5.03,
        0,
        2.2048054881866572,
        0.6857055737174911,
        -1.4190745113425725,
        1
      ],
      "name": "Box_2",
      "extras": {
        "name": "Box"
      },
      "mesh": 0
    },
    {
      "matrix": [
        0.06,
        0,
        0,
        0,
        0,
        1.4,
        0,
        0,
        0,
        0,
        5.03,
        0,
        -2.2503890853528277,
        0.6857055737174911,
        -0.7007462600654346,
        1
      ],
      "name": "Box_3",
      "extras": {
        "name": "Box"
      },
      "mesh": 0
    },
    {
      "matrix": [
        3.68,
        0,
        0,
        0,
        0,
        0.04,
        0,
        0,
        0,
        0,
        0.31,
        0,
        0.33384108673526985,
        0.39067207499719814,
        -3.7432621785435143,
        1
      ],
      "name": "Box_4",
      "extras": {
        "name": "Box"
      },
      "mesh": 1
    },
    {
      "matrix": [
        3.56,
        0,
        0,
        0,
        0,
        0.04,
        0,
        0,
        0,
        0,
        0.31,
        0,
        -0.4435595055972525,
        0.3908811922258316,
        1.6158885220645192,
        1
      ],
      "name": "Box_5",
      "extras": {
        "name": "Box"
      },
      "mesh": 1
    },
    {
      "matrix": [
        1.0036416142611414e-15,
        0,
        -4.52,
        0,
        0,
        0.04,
        0,
        0,
        0.31,
        0,
        6.88338275267597e-17,
        0,
        -2.0670084045502444,
        0.3908811922258316,
        -0.7778860305253326,
        1
      ],
      "name": "Box_6",
      "extras": {
        "name": "Box"
      },
      "mesh": 1
    },
    {
      "matrix": [
        1.0036416142611414e-15,
        0,
        -4.52,
        0,
        0,
        0.04,
        0,
        0,
        0.31,
        0,
        6.88338275267597e-17,
        0,
        2.01318872488071,
        0.3908811922258316,
        -1.3406508935166452,
        1
      ],
      "name": "Box_7",
      "extras": {
        "name": "Box"
      },
      "mesh": 1
    },
    {
      "matrix": [
        0.88,
        0,
        0,
        0,
        0,
        -0.66,
        0,
        0,
        0,
        0,
        1,
        0,
        0.01794361193192743,
        0.3316557590975426,
        -0.9928798264732659,
        1
      ],
      "name": "Box_8",
      "extras": {
        "name": "Box"
      },
      "mesh": 2
    },
    {
      "matrix": [
        3.94,
        0,
        0,
        0,
        0,
        1.4,
        0,
        0,
        0,
        0,
        0.04,
        0,
        4.758776312395905,
        0.6914509748235325,
        1.7875770495333434,
        1
      ],
      "name": "Box_9",
      "extras": {
        "name": "Box"
      },
      "mesh": 0
    },
    {
      "matrix": [
        0.06,
        0,
        0,
        0,
        0,
        1.4,
        0,
        0,
        0,
        0,
        4.53,
        0,
        6.703704439829002,
        0.6857055737174911,
        -0.44830304210315397,
        1
      ],
      "name": "Box_10",
      "extras": {
        "name": "Box"
      },
      "mesh": 0
    },
    {
      "matrix": [
        1.98,
        0,
        0,
        0,
        0,
        1.4,
        0,
        0,
        0,
        0,
        0.04,
        0,
        3.220402385850973,
        0.6914509748235325,
        -3.921994892448671,
        1
      ],
      "name": "Box_11",
      "extras": {
        "name": "Box"
      },
      "mesh": 0
    },
    {
      "matrix": [
        0.06,
        0,
        0,
        0,
        0,
        1.4,
        0,
        0,
        0,
        0,
        1.23,
        0,
        4.243527668703195,
        0.6857055737174911,
        -3.327966078017548,
        1
      ],
      "name": "Box_12",
      "extras": {
        "name": "Box"
      },
      "mesh": 0
    },
    {
      "matrix": [
        2.46,
        0,
        0,
        0,
        0,
        1.4,
        0,
        0,
        0,
        0,
        0.04,
        0,
        5.446342589681988,
        0.6914509748235325,
        -2.7008807604371436,
        1
      ],
      "name": "Box_13",
      "extras": {
        "name": "Box"
      },
      "mesh": 0
    },
    {
      "matrix": [
        1.0036416142611414e-15,
        0,
        -4.52,
        0,
        0,
        0.04,
        0,
        0,
        0.31,
        0,
        6.88338275267597e-17,
        0,
        6.523177326870099,
        0.3908811922258316,
        -0.463677083730175,
        1
      ],
      "name": "Box_14",
      "extras": {
        "name": "Box"
      },
      "mesh": 1
    },
    {
      "matrix": [
        1.056932319443149e-15,
        0,
        -4.76,
        0,
        0,
        0.04,
        0,
        0,
        0.31,
        0,
        6.88338275267597e-17,
        0,
        2.388242845413944,
        0.3908811922258316,
        -1.2821252388559787,
        1
      ],
      "name": "Box_15",
      "extras": {
        "name": "Box"
      },
      "mesh": 1
    },
    {
      "matrix": [
        1.98,
        0,
        0,
        0,
        0,
        0.04,
        0,
        0,
        0,
        0,
        0.31,
        0,
        3.2191711988205043,
        0.39067207499719814,
        -3.7432621785435143,
        1
      ],
      "name": "Box_16",
      "extras": {
        "name": "Box"
      },
      "mesh": 1
    },
    {
      "matrix": [
        3.56,
        0,
        0,
        0,
        0,
        0.04,
        0,
        0,
        0,
        0,
        0.31,
        0,
        4.5904598647409225,
        0.3908811922258316,
        1.6158885220645192,
        1
      ],
      "name": "Box_17",
      "extras": {
        "name": "Box"
      },
      "mesh": 1
    },
    {
      "matrix": [
        2.7977620220553945e-16,
        0,
        -1.26,
        0,
        0,
        0.04,
        0,
        0,
        0.31,
        0,
        6.88338275267597e-17,
        0,
        4.083459660231023,
        0.3908811922258316,
        -3.0029044770476703,
        1
      ],
      "name": "Box_18",
      "extras": {
        "name": "Box"
      },
      "mesh": 1
    },
    {
      "matrix": [
        2.18,
        0,
        0,
        0,
        0,
        0.04,
        0,
        0,
        0,
        0,
        0.31,
        0,
        5.289569433380682,
        0.3908811922258316,
        -2.5344585531761172,
        1
      ],
      "name": "Box_19",
      "extras": {
        "name": "Box"
      },
      "mesh": 1
    },
    {
      "matrix": [
        0.88,
        0,
        0,
        0,
        0,
        0.6,
        0,
        0,
        0,
        0,
        1,
        0,
        4.626613529785868,
        0.30205886612367044,
        -0.5222354133878283,
        1
      ],
      "name": "Box_20",
      "extras": {
        "name": "Box"
      },
      "mesh": 2
    },
    {
      "matrix": [
        3.94,
        0,
        0,
        0,
        0,
        1.4,
        0,
        0,
        0,
        0,
        0.04,
        0,
        4.758776312395905,
        0.6914509748235325,
        1.7875770495333434,
        1
      ],
      "name": "Box_21",
      "extras": {
        "name": "Box"
      },
      "mesh": 0
    },
    {
      "matrix": [
        9.4,
        0,
        0,
        0,
        0,
        0.04,
        0,
        0,
        0,
        0,
        6.44,
        0,
        2.2786904060299227,
        0.007097445780025746,
        -0.9309792438769547,
        1
      ],
      "name": "Box_22",
      "extras": {
        "name": "Box"
      },
      "mesh": 3
    },
    {
      "matrix": [
        1,
        0,
        0,
        0,
        0,
        1,
        0,
        0,
        0,
        0,
        1,
        0,
        -4.28582986539469,
        0.7840975409088141,
        0.5826221826185312,
        1
      ],
      "name": "final.glb",
      "children": [
        0,
        1,
        2,
        3,
        4,
        5,
        6,
        7,
        8,
        9,
        10,
        11,
        12,
        13,
        14,
        15,
        16,
        17,
        18,
        19,
        20,
        21,
        22
      ]
    }
  ],
  "bufferViews": [
    {
      "buffer": 0,
      "byteOffset": 0,
      "byteLength": 288,
      "target": 34962,
      "byteStride": 12
    },
    {
      "buffer": 0,
      "byteOffset": 288,
      "byteLength": 288,
      "target": 34962,
      "byteStride": 12
    },
    {
      "buffer": 0,
      "byteOffset": 576,
      "byteLength": 192,
      "target": 34962,
      "byteStride": 8
    },
    {
      "buffer": 0,
      "byteOffset": 768,
      "byteLength": 72,
      "target": 34963
    },
    {
      "buffer": 0,
      "byteOffset": 840,
      "byteLength": 288,
      "target": 34962,
      "byteStride": 12
    },
    {
      "buffer": 0,
      "byteOffset": 1128,
      "byteLength": 288,
      "target": 34962,
      "byteStride": 12
    },
    {
      "buffer": 0,
      "byteOffset": 1416,
      "byteLength": 192,
      "target": 34962,
      "byteStride": 8
    },
    {
      "buffer": 0,
      "byteOffset": 1608,
      "byteLength": 72,
      "target": 34963
    },
    {
      "buffer": 0,
      "byteOffset": 1680,
      "byteLength": 288,
      "target": 34962,
      "byteStride": 12
    },
    {
      "buffer": 0,
      "byteOffset": 1968,
      "byteLength": 288,
      "target": 34962,
      "byteStride": 12
    },
    {
      "buffer": 0,
      "byteOffset": 2256,
      "byteLength": 192,
      "target": 34962,
      "byteStride": 8
    },
    {
      "buffer": 0,
      "byteOffset": 2448,
      "byteLength": 72,
      "target": 34963
    },
    {
      "buffer": 0,
      "byteOffset": 2520,
      "byteLength": 288,
      "target": 34962,
      "byteStride": 12
    },
    {
      "buffer": 0,
      "byteOffset": 2808,
      "byteLength": 288,
      "target": 34962,
      "byteStride": 12
    },
    {
      "buffer": 0,
      "byteOffset": 3096,
      "byteLength": 192,
      "target": 34962,
      "byteStride": 8
    },
    {
      "buffer": 0,
      "byteOffset": 3288,
      "byteLength": 72,
      "target": 34963
    }
  ],
  "buffers": [
    {
      "byteLength": 3360,
      "uri": "data:application/octet-stream;base64,"
    }
  ],
  "accessors": [
    {
      "bufferView": 0,
      "componentType": 5126,
      "count": 24,
      "max": [
        0.5,
        0.5,
        0.5
      ],
      "min": [
        -0.5,
        -0.5,
        -0.5
      ],
      "type": "VEC3"
    },
    {
      "bufferView": 1,
      "componentType": 5126,
      "count": 24,
      "max": [
        1,
        1,
        1
      ],
      "min": [
        -1,
        -1,
        -1
      ],
      "type": "VEC3"
    },
    {
      "bufferView": 2,
      "componentType": 5126,
      "count": 24,
      "max": [
        1,
        1
      ],
      "min": [
        0,
        0
      ],
      "type": "VEC2"
    },
    {
      "bufferView": 3,
      "componentType": 5123,
      "count": 36,
      "max": [
        23
      ],
      "min": [
        0
      ],
      "type": "SCALAR"
    },
    {
      "bufferView": 4,
      "componentType": 5126,
      "count": 24,
      "max": [
        0.5,
        0.5,
        0.5
      ],
      "min": [
        -0.5,
        -0.5,
        -0.5
      ],
      "type": "VEC3"
    },
    {
      "bufferView": 5,
      "componentType": 5126,
      "count": 24,
      "max": [
        1,
        1,
        1
      ],
      "min": [
        -1,
        -1,
        -1
      ],
      "type": "VEC3"
    },
    {
      "bufferView": 6,
      "componentType": 5126,
      "count": 24,
      "max": [
        1,
        1
      ],
      "min": [
        0,
        0
      ],
      "type": "VEC2"
    },
    {
      "bufferView": 7,
      "componentType": 5123,
      "count": 36,
      "max": [
        23
      ],
      "min": [
        0
      ],
      "type": "SCALAR"
    },
    {
      "bufferView": 8,
      "componentType": 5126,
      "count": 24,
      "max": [
        0.5,
        0.5,
        0.5
      ],
      "min": [
        -0.5,
        -0.5,
        -0.5
      ],
      "type": "VEC3"
    },
    {
      "bufferView": 9,
      "componentType": 5126,
      "count": 24,
      "max": [
        1,
        1,
        1
      ],
      "min": [
        -1,
        -1,
        -1
      ],
      "type": "VEC3"
    },
    {
      "bufferView": 10,
      "componentType": 5126,
      "count": 24,
      "max": [
        1,
        1
      ],
      "min": [
        0,
        0
      ],
      "type": "VEC2"
    },
    {
      "bufferView": 11,
      "componentType": 5123,
      "count": 36,
      "max": [
        23
      ],
      "min": [
        0
      ],
      "type": "SCALAR"
    },
    {
      "bufferView": 12,
      "componentType": 5126,
      "count": 24,
      "max": [
        0.5,
        0.5,
        0.5
      ],
      "min": [
        -0.5,
        -0.5,
        -0.5
      ],
      "type": "VEC3"
    },
    {
      "bufferView": 13,
      "componentType": 5126,
      "count": 24,
      "max": [
        1,
        1,
        1
      ],
      "min": [
        -1,
        -1,
        -1
      ],
      "type": "VEC3"
    },
    {
      "bufferView": 14,
      "componentType": 5126,
      "count": 24,
      "max": [
        1,
        1
      ],
      "min": [
        0,
        0
      ],
      "type": "VEC2"
    },
    {
      "bufferView": 15,
      "componentType": 5123,
      "count": 36,
      "max": [
        23
      ],
      "min": [
        0
      ],
      "type": "SCALAR"
    }
  ],
  "materials": [
    {
      "pbrMetallicRoughness": {
        "metallicFactor": 0,
        "roughnessFactor": 1
      }
    },
    {
      "pbrMetallicRoughness": {
        "metallicFactor": 0,
        "roughnessFactor": 1
      }
    },
    {
      "pbrMetallicRoughness": {
        "metallicFactor": 0,
        "roughnessFactor": 1
      }
    },
    {
      "pbrMetallicRoughness": {
        "metallicFactor": 0,
        "roughnessFactor": 1
      }
    }
  ],
  "meshes": [
    {
      "primitives": [
        {
          "mode": 4,
          "attributes": {
            "POSITION": 0,
            "NORMAL": 1,
            "TEXCOORD_0": 2
          },
          "indices": 3,
          "material": 0
        }
      ]
    },
    {
      "primitives": [
        {
          "mode": 4,
          "attributes": {
            "POSITION": 4,
            "NORMAL": 5,
            "TEXCOORD_0": 6
          },
          "indices": 7,
          "material": 1
        }
      ]
    },
    {
      "primitives": [
        {
          "mode": 4,
          "attributes": {
            "POSITION": 8,
            "NORMAL": 9,
            "TEXCOORD_0": 10
          },
          "indices": 11,
          "material": 2
        }
      ]
    },
    {
      "primitives": [
        {
          "mode": 4,
          "attributes": {
            "POSITION": 12,
            "NORMAL": 13,
            "TEXCOORD_0": 14
          },
          "indices": 15,
          "material": 3
        }
      ]
    }
  ]
}